# xmcd
#
# Track frame offsets:
#	150
#	21556
#	42943
#	62193
#	83550
#	110312
#	123791
#	138063
#	164151
#	187867
#	206571
#	227283
#	249542
#	269684
#
# Disc length: 4344 seconds
#
# Revision: 5
# Processed by: cddbd v1.5.2PL0 Copyright (c) Steve Scherf et al.
# Submitted via: EZCDAudioConverter 8.1.0.1
#
DISCID=bb10f60e
DTITLE=Santana - Santana Greatest Hits 2000
DYEAR=2000
DGENRE=Classic Rock
TTITLE0=Chill Out (Thing´s gonna Change ) feat.John Lee Hooker
TTITLE1=Put Your Lights On feat. Everlast 
TTITLE2=Oye Como Va
TTITLE3=Stormy
TTITLE4=Do You Like The Way feat. Lauryn Hill and Cee Lo
TTITLE5=Evil Ways
TTITLE6=I'll Be Waiting (Single Version)
TTITLE7=Love Of My Life feat. Dave Matthews
TTITLE8=One With You
TTITLE9=Havana Moon
TTITLE10=Corazon Espinado faet. Mana 
TTITLE11=Vereda Tropical
TTITLE12=Gypsy Woman
TTITLE13=The Calling feat. Eric Clapton
EXTD=
EXTT0=
EXTT1=
EXTT2=
EXTT3=
EXTT4=
EXTT5=
EXTT6=
EXTT7=
EXTT8=
EXTT9=
EXTT10=
EXTT11=
EXTT12=
EXTT13=
PLAYORDER=
